<svg xmlns="http://www.w3.org/2000/svg" xmlns:xlink="http://www.w3.org/1999/xlink" width="40" zoomAndPan="magnify" viewBox="0 0 30 30.000001" height="40" preserveAspectRatio="xMidYMid meet" version="1.0"><defs><g/></defs><g fill="#d9d9d9" fill-opacity="1"><g transform="translate(9.2373, 27.13341)"><g><path d="M 2.835938 -8.390625 L 2.835938 -14.652344 C 2.835938 -14.726562 2.761719 -14.820312 2.628906 -14.820312 L 0.203125 -14.820312 C 0.09375 -14.820312 0 -14.726562 0 -14.652344 L 0 -8.390625 Z M 11.078125 -14.820312 L 8.652344 -14.820312 C 8.539062 -14.820312 8.449219 -14.726562 8.449219 -14.652344 L 8.449219 -5.539062 L 2.835938 -5.539062 L 2.835938 -5.558594 L 0 -5.558594 L 0 -0.167969 C 0 -0.09375 0.09375 0 0.203125 0 L 2.628906 0 C 2.761719 0 2.835938 -0.09375 2.835938 -0.167969 L 2.835938 -2.777344 L 8.449219 -2.777344 L 8.449219 -0.167969 C 8.449219 -0.09375 8.539062 0 8.652344 0 L 11.078125 0 C 11.207031 0 11.28125 -0.09375 11.28125 -0.167969 L 11.28125 -14.652344 C 11.28125 -14.726562 11.207031 -14.820312 11.078125 -14.820312 Z M 11.078125 -14.820312 "/></g></g></g><g fill="#ffffff" fill-opacity="1"><g transform="translate(7.272345, 21.637597)"><g><path d="M 7.273438 -8.800781 C 6.144531 -9.335938 5.035156 -9.335938 4.933594 -9.335938 C 3.925781 -9.335938 2.953125 -9.929688 2.953125 -11.078125 C 2.953125 -12.347656 3.84375 -13.003906 4.933594 -13.003906 C 5.964844 -13.003906 6.839844 -12.46875 6.878906 -11.335938 C 6.878906 -11.277344 6.976562 -11.179688 7.097656 -11.179688 L 9.574219 -11.179688 C 9.710938 -11.179688 9.8125 -11.277344 9.792969 -11.335938 C 9.753906 -14.035156 7.652344 -15.855469 4.933594 -15.855469 C 2.398438 -15.855469 0 -14.054688 0 -11.078125 C 0 -9.238281 0.929688 -7.828125 2.578125 -7.074219 C 3.726562 -6.539062 4.796875 -6.539062 4.933594 -6.539062 C 5.828125 -6.5 6.917969 -5.789062 6.917969 -4.617188 C 6.917969 -3.566406 5.984375 -2.855469 4.933594 -2.855469 C 4.933594 -2.855469 4.933594 -2.855469 4.914062 -2.855469 L 4.914062 0 C 4.933594 0 4.933594 0 4.933594 0 C 7.472656 0 9.851562 -1.644531 9.851562 -4.617188 C 9.851562 -6.480469 8.9375 -8.027344 7.273438 -8.800781 Z M 7.273438 -8.800781 "/></g></g></g></svg>